<svg id="Logo" xmlns="http://www.w3.org/2000/svg" viewBox="0 0 612 114.73"><defs><style>.cls-1{fill:#155291;}.cls-2{fill:#5abd78;}</style></defs><title>MCS_libEnsemble_Logo_Fin_cmyk</title><path class="cls-1" d="M88.64,73.75l18.07-25.86c-.9-.68-1.82-1.33-2.77-1.94L89.14,67.14Z" transform="translate(-18.16 -15.05)"/><path class="cls-1" d="M116.47,25.26A6.5,6.5,0,0,0,111,35.93l-1.71,2.48,2.79,1.91,1.68-2.45a6.27,6.27,0,0,0,1.74.37,6.51,6.51,0,0,0,1-13Zm-.72,9.62A3.13,3.13,0,1,1,119.11,32,3.16,3.16,0,0,1,115.75,34.88Z" transform="translate(-18.16 -15.05)"/><path class="cls-1" d="M54.2,119.36l.53-.67h0l1.31-1.8-2.7-2-1.29,1.77h0l-.5.65a5.66,5.66,0,0,0-.9-.32,6.53,6.53,0,1,0,3.55,2.39Zm-6,6.94A3.13,3.13,0,1,1,52,124.07,3.13,3.13,0,0,1,48.21,126.3Z" transform="translate(-18.16 -15.05)"/><polygon class="cls-1" points="62.18 68.61 57.78 69.42 40.89 92.58 43.58 94.6 62.18 68.61"/><path class="cls-1" d="M120.34,67.9,92.25,74.35l-3.2,2.71,4.17.49,27.88-6.37C120.9,70.07,120.64,69,120.34,67.9Z" transform="translate(-18.16 -15.05)"/><path class="cls-1" d="M145.42,57.63a6.51,6.51,0,0,0-7,6v.25l-9.05,2c.29,1.08.54,2.17.76,3.28l9-2a6.51,6.51,0,1,0,6.23-9.53Zm-.72,9.62a3.14,3.14,0,1,1,3.36-2.9A3.15,3.15,0,0,1,144.7,67.25Z" transform="translate(-18.16 -15.05)"/><path class="cls-1" d="M80.92,109.22a6.51,6.51,0,1,0,7.41-6L86.52,88.42,83,84.49l2,19.18A6.52,6.52,0,0,0,80.92,109.22Zm6.73-2.64a3.13,3.13,0,1,1-3.37,2.89A3.14,3.14,0,0,1,87.65,106.58Z" transform="translate(-18.16 -15.05)"/><path class="cls-1" d="M114,79.43A6.52,6.52,0,0,0,108.51,83L91.1,79.3l3.77,4.19,12.95,2.81A6.5,6.5,0,1,0,114,79.43Zm.48,9.63a3.14,3.14,0,1,1,3-3.29A3.13,3.13,0,0,1,114.47,89.06Z" transform="translate(-18.16 -15.05)"/><path class="cls-1" d="M73.11,51.91a6.49,6.49,0,1,0-4.26,5.63L79.19,72.43l.41-5.14-8-11.69A6.41,6.41,0,0,0,73.11,51.91Zm-6.72,2.64a3.13,3.13,0,1,1,3.36-2.89A3.13,3.13,0,0,1,66.39,54.55Z" transform="translate(-18.16 -15.05)"/><path class="cls-2" d="M49,62.05c-.48,1-.91,2-1.31,3.11L72.2,75.48l5.36-1Z" transform="translate(-18.16 -15.05)"/><path class="cls-2" d="M30.52,62.82a6.51,6.51,0,0,0,5.62-2.5l3,1.24c.4-1.06.83-2.1,1.31-3.11l-3-1.24c0-.13,0-.26,0-.4a6.51,6.51,0,1,0-7,6Zm.61-9.59a3.14,3.14,0,1,1-3.36,2.89A3.13,3.13,0,0,1,31.13,53.23Z" transform="translate(-18.16 -15.05)"/><path id="Top_trio" data-name="Top trio" class="cls-2" d="M128.15,120.87a6.49,6.49,0,0,0-9.43-6.28L85.3,77.43,89.15,28a6.52,6.52,0,1,0-3.36-.26L82,76.83,30.53,86.17a6.49,6.49,0,1,0,.63,3.31l52-9.43,33.1,36.79a6.42,6.42,0,0,0-1,3.06,6.51,6.51,0,1,0,13,1ZM87.7,24.68a3.13,3.13,0,1,1,3.37-2.89A3.14,3.14,0,0,1,87.7,24.68ZM24.44,92.11a3.14,3.14,0,1,1,3.36-2.9A3.15,3.15,0,0,1,24.44,92.11Zm97,31.4a3.13,3.13,0,1,1,3.36-2.89A3.13,3.13,0,0,1,121.43,123.51Z" transform="translate(-18.16 -15.05)"/><path class="cls-2" d="M91.6,34.61l-.24,3.09a41.26,41.26,0,0,1,23.24,67.71l2.09,2.33A44.38,44.38,0,0,0,91.6,34.61Z" transform="translate(-18.16 -15.05)"/><path class="cls-2" d="M44,90.3l-3,.55a44.36,44.36,0,0,0,68.64,23.28l-2.09-2.32A41.25,41.25,0,0,1,44,90.3Z" transform="translate(-18.16 -15.05)"/><path class="cls-2" d="M42.24,78.25A41.35,41.35,0,0,1,81.85,37l.23-3.08A44.37,44.37,0,0,0,39.16,78.25c0,1.08.06,2.15.13,3.22l3.05-.56C42.28,80,42.24,79.14,42.24,78.25Z" transform="translate(-18.16 -15.05)"/><path class="cls-1" d="M164.83,47h11.94v62.75H164.83Z" transform="translate(-18.16 -15.05)"/><path class="cls-1" d="M186.27,64.29h11.95v45.44H186.27Z" transform="translate(-18.16 -15.05)"/><path class="cls-1" d="M207.72,47h11.94V70.12a17.51,17.51,0,0,1,14-7c11.57,0,20.13,9,20.13,23.9,0,15.14-8.65,23.8-20.13,23.8a17.64,17.64,0,0,1-14-7v5.84H207.72Zm22.2,53.25c7,0,11.57-5.27,11.57-13.17s-4.61-13.27-11.57-13.27a13.2,13.2,0,0,0-10.26,5.27V95.15C221.64,98.06,226.06,100.23,229.92,100.23Z" transform="translate(-18.16 -15.05)"/><path class="cls-1" d="M261.9,47H303v7h-33.3V74.17h32.64v7H269.71v21.64H303v7H261.9Z" transform="translate(-18.16 -15.05)"/><path class="cls-1" d="M342,80c0-8-4-10.54-10.16-10.54a17.55,17.55,0,0,0-13.45,7.06v33.21h-7.05V64.29h7.05v6.59c3.2-3.77,9.41-7.72,16.18-7.72,9.5,0,14.49,4.8,14.49,14.68v31.89H342Z" transform="translate(-18.16 -15.05)"/><path class="cls-1" d="M359.16,98.63a20.59,20.59,0,0,0,15,6.49c7,0,10.72-3.29,10.72-7.81,0-5-5.55-6.3-11.66-7.81-7.72-1.78-16.47-3.85-16.47-13.26,0-7.06,6.12-13.08,16.94-13.08,7.71,0,13.17,2.92,16.84,6.59l-3.3,4.89c-2.72-3.29-7.71-5.74-13.54-5.74-6.21,0-10.07,3.1-10.07,7.15,0,4.33,5.18,5.55,11.1,7,7.9,1.79,17,4,17,14.11,0,7.62-6.12,13.74-17.87,13.74-7.44,0-13.74-2.26-18.35-7.15Z" transform="translate(-18.16 -15.05)"/><path class="cls-1" d="M419.17,63.16c13.74,0,21.83,10.73,21.83,24.37v1.78H404.22c.56,8.56,6.58,15.71,16.37,15.71a19.87,19.87,0,0,0,14-5.73l3.39,4.6c-4.52,4.52-10.63,7-18.06,7-13.46,0-23.14-9.69-23.14-23.9C396.79,73.79,406.19,63.16,419.17,63.16Zm-14.95,21H434c-.1-6.77-4.61-15.15-15-15.15C409.39,69,404.59,77.18,404.22,84.14Z" transform="translate(-18.16 -15.05)"/><path class="cls-1" d="M503.46,78.87c0-5.74-2.54-9.41-8.37-9.41-4.71,0-9.69,3.39-12,7v33.3H476V78.87c0-5.74-2.45-9.41-8.37-9.41-4.61,0-9.5,3.39-11.95,7.06v33.21h-7.06V64.29h7.06v6.59c1.88-2.92,8-7.72,14.67-7.72,7,0,10.92,3.77,12.23,8.47a19.13,19.13,0,0,1,15.24-8.47c8.28,0,12.7,4.61,12.7,13.74v32.83h-7.05Z" transform="translate(-18.16 -15.05)"/><path class="cls-1" d="M520.86,47h7V71.16a18.87,18.87,0,0,1,15.34-8c11.85,0,20.22,9.41,20.22,23.9,0,14.77-8.37,23.8-20.22,23.8A19.15,19.15,0,0,1,527.91,103v6.78h-7Zm20.6,57.57c9.22,0,14.67-7.43,14.67-17.49s-5.45-17.6-14.67-17.6a16.9,16.9,0,0,0-13.55,7.34V97.4C530.36,101.35,535.91,104.55,541.46,104.55Z" transform="translate(-18.16 -15.05)"/><path class="cls-1" d="M571.18,47h7.06v62.75h-7.06Z" transform="translate(-18.16 -15.05)"/><path class="cls-1" d="M608.34,63.16c13.73,0,21.82,10.73,21.82,24.37v1.78H593.38C593.94,97.87,600,105,609.75,105a19.87,19.87,0,0,0,14-5.73l3.39,4.6c-4.51,4.52-10.63,7-18.06,7-13.45,0-23.14-9.69-23.14-23.9C586,73.79,595.36,63.16,608.34,63.16Zm-15,21H623.2c-.09-6.77-4.61-15.15-15-15.15C598.55,69,593.76,77.18,593.38,84.14Z" transform="translate(-18.16 -15.05)"/><path class="cls-2" d="M192.4,45a7.68,7.68,0,0,0-7.68,7.63,7.68,7.68,0,1,0,15.35,0A7.61,7.61,0,0,0,192.4,45Zm0,11.4a3.73,3.73,0,1,1,3.72-3.72A3.73,3.73,0,0,1,192.4,56.38Z" transform="translate(-18.16 -15.05)"/></svg>